<?xml version="1.0" standalone="no"?>
<!DOCTYPE svg PUBLIC "-//W3C//DTD SVG 20010904//EN"
 "http://www.w3.org/TR/2001/REC-SVG-20010904/DTD/svg10.dtd">
<svg version="1.0" xmlns="http://www.w3.org/2000/svg"
 width="336.000000pt" height="125.000000pt" viewBox="0 0 336.000000 125.000000"
 preserveAspectRatio="xMidYMid meet">

<g transform="translate(0.000000,125.000000) scale(0.100000,-0.100000)"
fill="#000000" stroke="none">
<path d="M219 1016 c-99 -26 -149 -92 -149 -193 1 -78 27 -132 96 -199 32 -30
55 -56 53 -58 -2 -2 -29 -14 -60 -28 -79 -36 -112 -82 -113 -156 0 -74 25
-125 79 -162 59 -41 120 -54 225 -48 62 4 102 12 134 27 106 52 154 155 122
266 -15 49 -29 70 -92 134 -41 41 -74 78 -74 81 0 3 22 13 49 23 29 10 62 32
80 52 54 61 40 160 -29 219 -62 51 -212 72 -321 42z m170 -35 c11 -11 25 -39
32 -63 11 -44 8 -185 -5 -206 -9 -16 -88 47 -128 102 -37 51 -40 127 -6 163
27 29 80 31 107 4z m-62 -502 c72 -71 99 -127 90 -190 -7 -56 -43 -91 -91 -91
-73 0 -96 48 -96 194 0 112 6 148 24 148 6 0 39 -28 73 -61z"/>
<path d="M1393 1001 c-49 -23 -73 -63 -73 -122 0 -35 6 -48 39 -80 34 -34 44
-39 86 -39 90 0 148 76 125 162 -10 36 -59 88 -83 88 -7 0 -21 2 -32 5 -11 3
-39 -4 -62 -14z"/>
<path d="M3168 1013 c7 -3 16 -2 19 1 4 3 -2 6 -13 5 -11 0 -14 -3 -6 -6z"/>
<path d="M642 987 c15 -12 32 -35 38 -50 14 -38 14 -636 0 -674 -6 -15 -23
-38 -38 -50 l-27 -23 231 0 c179 0 242 3 282 15 103 31 159 113 150 219 -8 99
-75 162 -183 173 -84 9 -83 21 5 38 80 16 133 72 145 156 14 96 -36 181 -122
207 -26 8 -121 12 -274 12 l-234 0 27 -23z m353 -52 c28 -58 28 -215 -1 -265
-14 -24 -28 -36 -47 -38 l-27 -3 0 176 0 176 28 -3 c20 -2 32 -13 47 -43z m-3
-362 c27 -24 41 -81 41 -168 -1 -121 -33 -185 -92 -185 -20 0 -21 5 -21 183 0
101 3 187 7 190 9 9 44 -2 65 -20z"/>
<path d="M1990 1000 c0 -5 6 -13 14 -17 33 -20 36 -50 36 -381 l0 -329 -25
-37 c-14 -20 -25 -39 -25 -41 0 -3 91 -5 203 -5 248 0 274 6 362 95 81 80 106
143 112 286 8 166 -22 265 -107 350 -78 78 -123 89 -365 89 -123 0 -205 -4
-205 -10z m374 -50 c14 -17 30 -47 36 -68 31 -108 36 -427 9 -554 -13 -61 -52
-106 -94 -110 l-30 -3 -3 383 -2 382 29 0 c20 0 37 -9 55 -30z"/>
<path d="M3129 993 c-13 -16 -12 -17 4 -4 16 13 21 21 13 21 -2 0 -10 -8 -17
-17z"/>
<path d="M3200 1006 c0 -2 8 -10 18 -17 15 -13 16 -12 3 4 -13 16 -21 21 -21
13z"/>
<path d="M3150 953 c0 -27 3 -34 9 -24 7 11 13 12 23 3 11 -8 14 -7 14 7 0 12
-6 17 -18 13 -12 -3 -18 1 -18 13 0 12 6 16 20 12 11 -3 18 -1 14 4 -3 5 -14
9 -25 9 -15 0 -19 -7 -19 -37z"/>
<path d="M3112 950 c0 -14 2 -19 5 -12 2 6 2 18 0 25 -3 6 -5 1 -5 -13z"/>
<path d="M3231 954 c0 -11 3 -14 6 -6 3 7 2 16 -1 19 -3 4 -6 -2 -5 -13z"/>
<path d="M1811 900 c-35 -52 -99 -105 -163 -136 -42 -20 -48 -33 -19 -41 19
-5 20 -17 23 -233 3 -213 4 -231 24 -257 11 -15 36 -36 55 -46 45 -24 138 -19
177 9 31 23 72 97 72 131 0 28 -16 30 -25 3 -3 -11 -16 -25 -28 -31 -17 -10
-24 -8 -39 11 -16 20 -18 43 -18 211 l0 188 43 3 c35 2 43 7 45 26 3 20 -1 22
-42 22 l-46 0 0 95 c0 112 -9 119 -59 45z"/>
<path d="M3216 913 c-6 -14 -5 -15 5 -6 7 7 10 15 7 18 -3 3 -9 -2 -12 -12z"/>
<path d="M3163 893 c9 -2 23 -2 30 0 6 3 -1 5 -18 5 -16 0 -22 -2 -12 -5z"/>
<path d="M2909 777 c-116 -33 -185 -128 -196 -271 -17 -225 147 -382 339 -324
61 18 133 88 159 156 26 67 31 183 11 253 -40 138 -182 222 -313 186z m106
-132 c10 -90 0 -374 -13 -407 -6 -16 -18 -28 -26 -28 -32 0 -40 43 -44 223 -5
200 2 280 26 303 15 15 17 15 33 -5 10 -12 20 -49 24 -86z"/>
<path d="M1495 719 c-16 -5 -67 -12 -113 -15 -45 -4 -85 -11 -88 -15 -2 -4 5
-14 15 -21 33 -24 41 -63 41 -212 0 -169 -5 -199 -36 -229 -13 -12 -24 -25
-24 -29 0 -5 74 -8 165 -8 91 0 165 3 165 7 0 4 -10 17 -22 31 -22 23 -23 32
-28 260 -5 228 -6 237 -25 239 -11 1 -33 -3 -50 -8z"/>
</g>
</svg>
